<svg xmlns="http://www.w3.org/2000/svg" viewBox="0 0 400 300" width="400" height="300">
  <!-- Background gradient -->
  <defs>
    <linearGradient id="bgGradient1" x1="0%" y1="0%" x2="100%" y2="100%">
      <stop offset="0%" style="stop-color:#667eea;stop-opacity:1" />
      <stop offset="100%" style="stop-color:#764ba2;stop-opacity:1" />
    </linearGradient>
  </defs>
  <rect width="400" height="300" fill="url(#bgGradient1)"/>
  
  <!-- Family members illustration -->
  <!-- Mother -->
  <circle cx="100" cy="80" r="20" fill="#fff"/>
  <path d="M 80 110 Q 80 100 100 100 Q 120 100 120 110 L 130 160 L 70 160 Z" fill="#fff"/>
  <line x1="75" y1="130" x2="50" y2="180" stroke="#fff" stroke-width="8" stroke-linecap="round"/>
  <line x1="125" y1="130" x2="150" y2="180" stroke="#fff" stroke-width="8" stroke-linecap="round"/>
  
  <!-- Father -->
  <circle cx="200" cy="75" r="22" fill="#f0f0f0"/>
  <path d="M 175 110 Q 175 98 200 98 Q 225 98 225 110 L 235 165 L 165 165 Z" fill="#f0f0f0"/>
  <line x1="170" y1="135" x2="140" y2="190" stroke="#f0f0f0" stroke-width="8" stroke-linecap="round"/>
  <line x1="230" y1="135" x2="260" y2="190" stroke="#f0f0f0" stroke-width="8" stroke-linecap="round"/>
  
  <!-- Child -->
  <circle cx="300" cy="90" r="18" fill="#fff"/>
  <path d="M 282 120 Q 282 108 300 108 Q 318 108 318 120 L 328 160 L 272 160 Z" fill="#fff"/>
  <line x1="278" y1="138" x2="258" y2="180" stroke="#fff" stroke-width="7" stroke-linecap="round"/>
  <line x1="322" y1="138" x2="342" y2="180" stroke="#fff" stroke-width="7" stroke-linecap="round"/>
  
  <!-- Passport icons -->
  <rect x="80" y="200" width="50" height="70" fill="#e74c3c" rx="3"/>
  <text x="105" y="235" font-size="12" font-weight="bold" fill="white" text-anchor="middle">PASSPORT</text>
  
  <rect x="175" y="195" width="50" height="70" fill="#3498db" rx="3"/>
  <text x="200" y="230" font-size="12" font-weight="bold" fill="white" text-anchor="middle">PASSPORT</text>
  
  <rect x="270" y="205" width="50" height="70" fill="#2ecc71" rx="3"/>
  <text x="295" y="240" font-size="12" font-weight="bold" fill="white" text-anchor="middle">PASSPORT</text>
  
  <!-- Checkmark -->
  <circle cx="350" cy="250" r="25" fill="#27ae60"/>
  <g stroke="white" stroke-width="4" fill="none" stroke-linecap="round" stroke-linejoin="round">
    <polyline points="340,250 345,260 360,240"/>
  </g>
  
  <!-- Text -->
  <text x="200" y="285" font-size="18" font-weight="bold" fill="white" text-anchor="middle">Family Visa</text>
</svg>